<svg width="470" height="148" viewBox="0 0 470 148" fill="none" 
    xmlns="http://www.w3.org/2000/svg">
    <mask id="mask0" mask-type="alpha" maskUnits="userSpaceOnUse" x="4" y="0" width="985" height="140">
        <path fill-rule="evenodd" clip-rule="evenodd" d="M156 45C156 20.1472 176.147 0 201 0H339C363.853 0 384 20.1472 384 45V95C384 119.853 363.853 140 339 140H201C176.147 140 156 119.853 156 95V45ZM201 40C198.239 40 196 42.2386 196 45V95C196 97.7614 198.239 100 201 100H339C341.761 100 344 97.7614 344 95V45C344 42.2386 341.761 40 339 40H201Z" fill="#C4C4C4"/>
        <path d="M4 70C4 58.402 13.402 49 25 49H211C222.598 49 232 58.402 232 70C232 81.598 222.598 91 211 91H25C13.402 91 4 81.598 4 70Z" fill="#C4C4C4"/>
        <path fill-rule="evenodd" clip-rule="evenodd" d="M461 45C461 20.1472 481.147 0 506 0H644C668.853 0 689 20.1472 689 45V95C689 119.853 668.853 140 644 140H506C481.147 140 461 119.853 461 95V45ZM506 40C503.239 40 501 42.2386 501 45V95C501 97.7614 503.239 100 506 100H644C646.761 100 649 97.7614 649 95V45C649 42.2386 646.761 40 644 40H506Z" fill="#C4C4C4"/>
        <path d="M304 70C304 58.402 313.402 49 325 49H511C522.598 49 532 58.402 532 70C532 81.598 522.598 91 511 91H325C313.402 91 304 81.598 304 70Z" fill="#C4C4C4"/>
    </mask>
    <g mask="url(#mask0)" style="transform: translate(-80px)">
        <text x="0" y="10" fill="black" style="font-family:sans-serif;font-size:16pt">
            95bf3cb419742c4935bce8afc142beee1a8a8a4b8116b19a279762e6add4fab977719e12679a498989f9
        </text>
        <text x="0" y="30" fill="black" style="font-family:sans-serif;font-size:16pt">
            8ea2812c2e1ff5ffc2d00a243e04fc9cf680ec55f230ed75d3d3a27ee6efe1e78d606bcf4435fd3bd6b4
        </text>
        <text x="0" y="50" fill="black" style="font-family:sans-serif;font-size:16pt">
            19780cfbd9ecd1e8baabcd5cd1d65b13a94a3dd1d97d404956aee21226e2b143f14115fa088732cc45df
        </text>
        <text x="0" y="70" fill="black" style="font-family:sans-serif;font-size:16pt">
            81276f8fc0834de6903acffce6ce69473f890dff9a2947b059c1456b40d61a16f57dbc76dc25173eaf2f
        </text>
        <text x="0" y="90" fill="black" style="font-family:sans-serif;font-size:16pt">
            53ba4c818408517e84e970da1a4900890a8314d6267406bcfdf8e20a5f4061fee327f7d817974755fc6b
        </text>
        <text x="0" y="110" fill="black" style="font-family:sans-serif;font-size:16pt">
            a8075faa8bbaa61e058fe9663299f0c491ed468b5ad8e729b1ec5723a689e075aa53ab1e1d7fd33401bc
        </text>
        <text x="0" y="130" fill="black" style="font-family:sans-serif;font-size:16pt">
            ccbda36ee9b0dc4bbd87f19ca8688d487c0cddde5ab5df87949f3e979ab97b24bd5b44f9f2770bf82fe4
        </text>
        <text x="0" y="150" fill="black" style="font-family:sans-serif;font-size:16pt">
            faf3b8a8016815a8c685a3fa133db3b928c60fc099c862073ffff436debcdc99ac368ce93f54f771b20c
        </text>
    </g>
</svg>
